<mxfile host="app.diagrams.net" modified="2024-03-25T15:57:43.364Z" agent="Mozilla/5.0 (Windows NT 10.0; Win64; x64) AppleWebKit/537.36 (KHTML, like Gecko) Chrome/122.0.0.0 Safari/537.36" etag="h-Gkh64GaaFrLrOxLDw6" version="24.0.7" type="device">
  <diagram name="Pagina-1" id="dRhcXz8oS_HXQejQhX38">
    <mxGraphModel dx="2790" dy="1243" grid="1" gridSize="10" guides="1" tooltips="1" connect="1" arrows="1" fold="1" page="1" pageScale="1" pageWidth="1920" pageHeight="1200" math="0" shadow="0">
      <root>
        <mxCell id="0" />
        <mxCell id="1" parent="0" />
        <mxCell id="vStvGhAySzdytfDFjWN4-33" value="&lt;font style=&quot;font-size: 24px;&quot;&gt;Sensore&lt;/font&gt;" style="swimlane;fontStyle=1;align=center;verticalAlign=top;childLayout=stackLayout;horizontal=1;startSize=40;horizontalStack=0;resizeParent=1;resizeParentMax=0;resizeLast=0;collapsible=1;marginBottom=0;whiteSpace=wrap;html=1;" parent="1" vertex="1">
          <mxGeometry x="30" y="10" width="520" height="630" as="geometry" />
        </mxCell>
        <mxCell id="vStvGhAySzdytfDFjWN4-34" value="&lt;font style=&quot;font-size: 18px;&quot;&gt;-nome: std::string&lt;br&gt;-tipo: std::string&lt;br&gt;-descrizione: std::string&lt;br&gt;-valori: std::vector(double)&lt;br&gt;-max: double&lt;br&gt;-min: double&lt;/font&gt;" style="text;strokeColor=none;fillColor=none;align=left;verticalAlign=top;spacingLeft=4;spacingRight=4;overflow=hidden;rotatable=0;points=[[0,0.5],[1,0.5]];portConstraint=eastwest;whiteSpace=wrap;html=1;" parent="vStvGhAySzdytfDFjWN4-33" vertex="1">
          <mxGeometry y="40" width="520" height="140" as="geometry" />
        </mxCell>
        <mxCell id="vStvGhAySzdytfDFjWN4-35" value="" style="line;strokeWidth=1;fillColor=none;align=left;verticalAlign=middle;spacingTop=-1;spacingLeft=3;spacingRight=3;rotatable=0;labelPosition=right;points=[];portConstraint=eastwest;strokeColor=inherit;" parent="vStvGhAySzdytfDFjWN4-33" vertex="1">
          <mxGeometry y="180" width="520" height="8" as="geometry" />
        </mxCell>
        <mxCell id="vStvGhAySzdytfDFjWN4-36" value="&lt;font style=&quot;font-size: 18px;&quot;&gt;+Sensore(std::string, std::string,std::string,std::vector(double),double,double)&lt;br&gt;&lt;i style=&quot;&quot;&gt;+~Sensore()&lt;br&gt;&lt;/i&gt;+getNome() std::string&amp;amp;&lt;br&gt;+getTipo() std::string&amp;amp;&lt;br&gt;+getDescrizione() std::string&amp;amp;&lt;br&gt;+getValori() const std::vector&amp;lt;double&amp;gt;&lt;br&gt;+getMin() double&amp;amp;&lt;br&gt;+getMax() double&amp;amp;&lt;br&gt;&lt;br&gt;+setNome(std::string) void&lt;br&gt;+setTipo(std::string) void&lt;br&gt;+setDescrizione(std::string) void&lt;br&gt;+setMin(double) void&lt;br&gt;+setMax(double) void&lt;br&gt;+setValori(std::vector&amp;lt;double&amp;gt;) void&lt;br&gt;&lt;br&gt;&lt;/font&gt;&lt;b&gt;&lt;i&gt;&lt;font size=&quot;3&quot; style=&quot;&quot;&gt;+accetta(SensorVisitorInterface&amp;amp;) : void&lt;br&gt;+accettaMod(SensorVisitorInterface&amp;amp;) : void&lt;br&gt;+accettaSalva(SensorVisitorInterface&amp;amp;) : void&lt;/font&gt;&lt;br&gt;&lt;/i&gt;&lt;/b&gt;" style="text;strokeColor=none;fillColor=none;align=left;verticalAlign=top;spacingLeft=4;spacingRight=4;overflow=hidden;rotatable=0;points=[[0,0.5],[1,0.5]];portConstraint=eastwest;whiteSpace=wrap;html=1;" parent="vStvGhAySzdytfDFjWN4-33" vertex="1">
          <mxGeometry y="188" width="520" height="442" as="geometry" />
        </mxCell>
        <mxCell id="vStvGhAySzdytfDFjWN4-37" value="&lt;font style=&quot;font-size: 24px;&quot;&gt;SensorePneumatico&lt;/font&gt;" style="swimlane;fontStyle=1;align=center;verticalAlign=top;childLayout=stackLayout;horizontal=1;startSize=40;horizontalStack=0;resizeParent=1;resizeParentMax=0;resizeLast=0;collapsible=1;marginBottom=0;whiteSpace=wrap;html=1;" parent="1" vertex="1">
          <mxGeometry x="10" y="700" width="490" height="324" as="geometry" />
        </mxCell>
        <mxCell id="vStvGhAySzdytfDFjWN4-38" value="&lt;font style=&quot;font-size: 18px;&quot;&gt;-marcaPneu: std::string&lt;br&gt;-eta: double&lt;/font&gt;" style="text;strokeColor=none;fillColor=none;align=left;verticalAlign=top;spacingLeft=4;spacingRight=4;overflow=hidden;rotatable=0;points=[[0,0.5],[1,0.5]];portConstraint=eastwest;whiteSpace=wrap;html=1;" parent="vStvGhAySzdytfDFjWN4-37" vertex="1">
          <mxGeometry y="40" width="490" height="54" as="geometry" />
        </mxCell>
        <mxCell id="vStvGhAySzdytfDFjWN4-39" value="" style="line;strokeWidth=1;fillColor=none;align=left;verticalAlign=middle;spacingTop=-1;spacingLeft=3;spacingRight=3;rotatable=0;labelPosition=right;points=[];portConstraint=eastwest;strokeColor=inherit;" parent="vStvGhAySzdytfDFjWN4-37" vertex="1">
          <mxGeometry y="94" width="490" height="8" as="geometry" />
        </mxCell>
        <mxCell id="vStvGhAySzdytfDFjWN4-40" value="&lt;font style=&quot;font-size: 18px;&quot;&gt;+getMarcaPneu()&amp;nbsp; const std::string&amp;amp;&lt;br&gt;+getEta() double&lt;br&gt;&lt;br&gt;+setMarcaPneu(std::string) void&lt;br&gt;+setEta(double) void&lt;br&gt;&lt;br&gt;&lt;i style=&quot;&quot;&gt;+accetta(SensorVisitorInterface&amp;amp;) void&lt;br&gt;+accettaMod(SensorVisitorInterface&amp;amp;) void&lt;br&gt;+accettaSalva(SensorVisitorInterface&amp;amp;, QJSonObject*) void&lt;/i&gt;&lt;/font&gt;" style="text;strokeColor=none;fillColor=none;align=left;verticalAlign=top;spacingLeft=4;spacingRight=4;overflow=hidden;rotatable=0;points=[[0,0.5],[1,0.5]];portConstraint=eastwest;whiteSpace=wrap;html=1;" parent="vStvGhAySzdytfDFjWN4-37" vertex="1">
          <mxGeometry y="102" width="490" height="222" as="geometry" />
        </mxCell>
        <mxCell id="vStvGhAySzdytfDFjWN4-41" value="&lt;font style=&quot;font-size: 24px;&quot;&gt;SensoreConsumo&lt;/font&gt;" style="swimlane;fontStyle=1;align=center;verticalAlign=top;childLayout=stackLayout;horizontal=1;startSize=40;horizontalStack=0;resizeParent=1;resizeParentMax=0;resizeLast=0;collapsible=1;marginBottom=0;whiteSpace=wrap;html=1;" parent="1" vertex="1">
          <mxGeometry x="640" y="10" width="500" height="280" as="geometry" />
        </mxCell>
        <mxCell id="vStvGhAySzdytfDFjWN4-42" value="&lt;font style=&quot;font-size: 18px;&quot;&gt;-ottano: unsigned int&lt;/font&gt;" style="text;strokeColor=none;fillColor=none;align=left;verticalAlign=top;spacingLeft=4;spacingRight=4;overflow=hidden;rotatable=0;points=[[0,0.5],[1,0.5]];portConstraint=eastwest;whiteSpace=wrap;html=1;" parent="vStvGhAySzdytfDFjWN4-41" vertex="1">
          <mxGeometry y="40" width="500" height="26" as="geometry" />
        </mxCell>
        <mxCell id="vStvGhAySzdytfDFjWN4-43" value="" style="line;strokeWidth=1;fillColor=none;align=left;verticalAlign=middle;spacingTop=-1;spacingLeft=3;spacingRight=3;rotatable=0;labelPosition=right;points=[];portConstraint=eastwest;strokeColor=inherit;" parent="vStvGhAySzdytfDFjWN4-41" vertex="1">
          <mxGeometry y="66" width="500" height="8" as="geometry" />
        </mxCell>
        <mxCell id="vStvGhAySzdytfDFjWN4-44" value="&lt;font style=&quot;font-size: 18px;&quot;&gt;+getOttano() unsigned int&lt;br&gt;&lt;br&gt;+setOttano(unsigned int) void&lt;br&gt;&lt;br&gt;&lt;i style=&quot;border-color: var(--border-color);&quot;&gt;+accetta(SensorVisitorInterface&amp;amp;) void&lt;br&gt;&lt;i style=&quot;border-color: var(--border-color);&quot;&gt;+accettaMod(SensorVisitorInterface&amp;amp;) void&lt;/i&gt;&lt;br style=&quot;border-color: var(--border-color);&quot;&gt;+accettaSalva(SensorVisitorInterface&amp;amp;, QJSonObject*) void&lt;/i&gt;&lt;/font&gt;" style="text;strokeColor=none;fillColor=none;align=left;verticalAlign=top;spacingLeft=4;spacingRight=4;overflow=hidden;rotatable=0;points=[[0,0.5],[1,0.5]];portConstraint=eastwest;whiteSpace=wrap;html=1;" parent="vStvGhAySzdytfDFjWN4-41" vertex="1">
          <mxGeometry y="74" width="500" height="206" as="geometry" />
        </mxCell>
        <mxCell id="vStvGhAySzdytfDFjWN4-45" value="&lt;font style=&quot;font-size: 24px;&quot;&gt;SensorVisitorInterface&lt;/font&gt;" style="swimlane;fontStyle=1;align=center;verticalAlign=top;childLayout=stackLayout;horizontal=1;startSize=40;horizontalStack=0;resizeParent=1;resizeParentMax=0;resizeLast=0;collapsible=1;marginBottom=0;whiteSpace=wrap;html=1;" parent="1" vertex="1">
          <mxGeometry x="1360" y="20" width="550" height="480" as="geometry" />
        </mxCell>
        <mxCell id="vStvGhAySzdytfDFjWN4-46" value="" style="line;strokeWidth=1;fillColor=none;align=left;verticalAlign=middle;spacingTop=-1;spacingLeft=3;spacingRight=3;rotatable=0;labelPosition=right;points=[];portConstraint=eastwest;strokeColor=inherit;" parent="vStvGhAySzdytfDFjWN4-45" vertex="1">
          <mxGeometry y="40" width="550" height="8" as="geometry" />
        </mxCell>
        <mxCell id="vStvGhAySzdytfDFjWN4-47" value="&lt;b style=&quot;&quot;&gt;&lt;font style=&quot;font-size: 18px;&quot;&gt;&lt;font style=&quot;&quot; face=&quot;Helvetica&quot;&gt;+~SensorVisitorInterface() = default;&lt;br&gt;&lt;br&gt;+visitaSensorPneumatico(SensorePneumatico&amp;amp;) void&lt;br&gt;+visitaSensorConsumo(SensoreConsumo&amp;amp;) void&lt;br&gt;+visitaSensorMotore(SensoreMotore&amp;amp;) void&lt;br&gt;+visitaSensorBatteria(SensoreBatteria&amp;amp;) void&lt;br&gt;+visitaSensorGas(SensoreGas&amp;amp;) void&lt;br&gt;&lt;span style=&quot;background-color: initial;&quot;&gt;&lt;br&gt;+modSPneumatico(SensorePneumatico* sPneumatico) void&lt;/span&gt;&lt;/font&gt;&lt;br&gt;&lt;/font&gt;&lt;/b&gt;&lt;div&gt;&lt;b style=&quot;&quot;&gt;&lt;font style=&quot;font-size: 18px;&quot; face=&quot;Helvetica&quot;&gt;+modSConsumo(SensoreConsumo* sConsumo) void&lt;/font&gt;&lt;/b&gt;&lt;/div&gt;&lt;div&gt;&lt;b&gt;&lt;font style=&quot;font-size: 18px;&quot; face=&quot;Helvetica&quot;&gt;+modSMotore(SensoreMotore* sMotore) void&lt;/font&gt;&lt;/b&gt;&lt;/div&gt;&lt;div&gt;&lt;b&gt;&lt;font style=&quot;font-size: 18px;&quot;&gt;+modSBatteria(SensoreBatteria* sBatteria) void&lt;/font&gt;&lt;/b&gt;&lt;/div&gt;&lt;div&gt;&lt;b&gt;&lt;font style=&quot;font-size: 18px;&quot; face=&quot;Helvetica&quot;&gt;+modSGas(SensoreGas* sGas) void&lt;/font&gt;&lt;/b&gt;&lt;/div&gt;&lt;b&gt;&lt;font style=&quot;font-size: 18px;&quot; face=&quot;VwdUe5FRXvo9E-9Qh8h4&quot;&gt;&lt;br&gt;&lt;/font&gt;&lt;/b&gt;&lt;pre style=&quot;margin-top: 0px; margin-bottom: 0px;&quot;&gt;&lt;b&gt;&lt;font style=&quot;font-size: 18px;&quot;&gt;&lt;font face=&quot;Helvetica&quot;&gt;+salvaSPneumatico(SensorePneumatico&amp;amp;, QJsonObject*) void&lt;/font&gt;&lt;font face=&quot;VwdUe5FRXvo9E-9Qh8h4&quot;&gt;&lt;br&gt;&lt;/font&gt;&lt;/font&gt;&lt;/b&gt;&lt;/pre&gt;&lt;pre style=&quot;margin-top: 0px; margin-bottom: 0px;&quot;&gt;&lt;pre style=&quot;border-color: var(--border-color); margin-top: 0px; margin-bottom: 0px;&quot;&gt;&lt;b&gt;&lt;font style=&quot;font-size: 18px;&quot; face=&quot;Helvetica&quot;&gt;+salvaSPConsumo(SensoreConsumo&amp;amp;, QJsonObject*) void&lt;/font&gt;&lt;/b&gt;&lt;/pre&gt;&lt;pre style=&quot;border-color: var(--border-color); margin-top: 0px; margin-bottom: 0px;&quot;&gt;&lt;b&gt;&lt;font style=&quot;font-size: 18px;&quot; face=&quot;Helvetica&quot;&gt;+salvaSMotore(SensoreMotore&amp;amp;, QJsonObject*) void&lt;/font&gt;&lt;/b&gt;&lt;/pre&gt;&lt;pre style=&quot;border-color: var(--border-color); margin-top: 0px; margin-bottom: 0px;&quot;&gt;&lt;b&gt;&lt;font style=&quot;font-size: 18px;&quot; face=&quot;Helvetica&quot;&gt;+salvaSBatteria(SensoreBatteria&amp;amp;, QJsonObject*) void&lt;/font&gt;&lt;/b&gt;&lt;/pre&gt;&lt;pre style=&quot;border-color: var(--border-color); margin-top: 0px; margin-bottom: 0px;&quot;&gt;&lt;b style=&quot;&quot;&gt;&lt;font style=&quot;font-size: 18px;&quot; face=&quot;Helvetica&quot;&gt;+salvaSGas(SensoreGas&amp;amp;, QJsonObject*) void&lt;/font&gt;&lt;/b&gt;&lt;/pre&gt;&lt;/pre&gt;" style="text;strokeColor=none;fillColor=none;align=left;verticalAlign=top;spacingLeft=4;spacingRight=4;overflow=hidden;rotatable=0;points=[[0,0.5],[1,0.5]];portConstraint=eastwest;whiteSpace=wrap;html=1;" parent="vStvGhAySzdytfDFjWN4-45" vertex="1">
          <mxGeometry y="48" width="550" height="432" as="geometry" />
        </mxCell>
        <mxCell id="vStvGhAySzdytfDFjWN4-48" value="" style="endArrow=block;dashed=1;endFill=0;endSize=12;html=1;rounded=0;exitX=0.001;exitY=0.388;exitDx=0;exitDy=0;entryX=1.011;entryY=0.137;entryDx=0;entryDy=0;entryPerimeter=0;exitPerimeter=0;" parent="1" source="vStvGhAySzdytfDFjWN4-44" target="vStvGhAySzdytfDFjWN4-36" edge="1">
          <mxGeometry width="160" relative="1" as="geometry">
            <mxPoint x="1000" y="810" as="sourcePoint" />
            <mxPoint x="801" y="710" as="targetPoint" />
          </mxGeometry>
        </mxCell>
        <mxCell id="vStvGhAySzdytfDFjWN4-49" value="" style="endArrow=block;dashed=1;endFill=0;endSize=12;html=1;rounded=0;exitX=0.5;exitY=0;exitDx=0;exitDy=0;entryX=0.253;entryY=1.004;entryDx=0;entryDy=0;entryPerimeter=0;" parent="1" source="vStvGhAySzdytfDFjWN4-37" target="vStvGhAySzdytfDFjWN4-36" edge="1">
          <mxGeometry width="160" relative="1" as="geometry">
            <mxPoint x="1291" y="640" as="sourcePoint" />
            <mxPoint x="260" y="520" as="targetPoint" />
          </mxGeometry>
        </mxCell>
        <mxCell id="vStvGhAySzdytfDFjWN4-50" value="&lt;font style=&quot;font-size: 24px;&quot;&gt;SensoreBatteria&lt;/font&gt;" style="swimlane;fontStyle=1;align=center;verticalAlign=top;childLayout=stackLayout;horizontal=1;startSize=40;horizontalStack=0;resizeParent=1;resizeParentMax=0;resizeLast=0;collapsible=1;marginBottom=0;whiteSpace=wrap;html=1;" parent="1" vertex="1">
          <mxGeometry x="640" y="830" width="500" height="240" as="geometry" />
        </mxCell>
        <mxCell id="vStvGhAySzdytfDFjWN4-51" value="&lt;font style=&quot;font-size: 18px;&quot;&gt;-materiale: std::string&lt;/font&gt;" style="text;strokeColor=none;fillColor=none;align=left;verticalAlign=top;spacingLeft=4;spacingRight=4;overflow=hidden;rotatable=0;points=[[0,0.5],[1,0.5]];portConstraint=eastwest;whiteSpace=wrap;html=1;" parent="vStvGhAySzdytfDFjWN4-50" vertex="1">
          <mxGeometry y="40" width="500" height="24" as="geometry" />
        </mxCell>
        <mxCell id="vStvGhAySzdytfDFjWN4-52" value="" style="line;strokeWidth=1;fillColor=none;align=left;verticalAlign=middle;spacingTop=-1;spacingLeft=3;spacingRight=3;rotatable=0;labelPosition=right;points=[];portConstraint=eastwest;strokeColor=inherit;" parent="vStvGhAySzdytfDFjWN4-50" vertex="1">
          <mxGeometry y="64" width="500" height="8" as="geometry" />
        </mxCell>
        <mxCell id="vStvGhAySzdytfDFjWN4-53" value="&lt;font style=&quot;font-size: 18px;&quot;&gt;+getMateriale() const std::string&lt;br&gt;&lt;br&gt;+setMateriale(std::string) void&lt;br&gt;&lt;br&gt;&lt;i style=&quot;border-color: var(--border-color);&quot;&gt;+accetta(SensorVisitorInterface&amp;amp;) void&lt;br&gt;+accettaMod(SensorVisitorInterface&amp;amp;) void&lt;br style=&quot;border-color: var(--border-color);&quot;&gt;+accettaSalva(SensorVisitorInterface&amp;amp;, QJSonObject*) void&lt;/i&gt;&lt;/font&gt;" style="text;strokeColor=none;fillColor=none;align=left;verticalAlign=top;spacingLeft=4;spacingRight=4;overflow=hidden;rotatable=0;points=[[0,0.5],[1,0.5]];portConstraint=eastwest;whiteSpace=wrap;html=1;" parent="vStvGhAySzdytfDFjWN4-50" vertex="1">
          <mxGeometry y="72" width="500" height="168" as="geometry" />
        </mxCell>
        <mxCell id="vStvGhAySzdytfDFjWN4-54" value="&lt;font style=&quot;font-size: 24px;&quot;&gt;SensoreGas&lt;/font&gt;" style="swimlane;fontStyle=1;align=center;verticalAlign=top;childLayout=stackLayout;horizontal=1;startSize=40;horizontalStack=0;resizeParent=1;resizeParentMax=0;resizeLast=0;collapsible=1;marginBottom=0;whiteSpace=wrap;html=1;" parent="1" vertex="1">
          <mxGeometry x="640" y="590" width="500" height="220" as="geometry" />
        </mxCell>
        <mxCell id="vStvGhAySzdytfDFjWN4-55" value="&lt;font style=&quot;font-size: 18px;&quot;&gt;-impronta: double&lt;/font&gt;" style="text;strokeColor=none;fillColor=none;align=left;verticalAlign=top;spacingLeft=4;spacingRight=4;overflow=hidden;rotatable=0;points=[[0,0.5],[1,0.5]];portConstraint=eastwest;whiteSpace=wrap;html=1;" parent="vStvGhAySzdytfDFjWN4-54" vertex="1">
          <mxGeometry y="40" width="500" height="26" as="geometry" />
        </mxCell>
        <mxCell id="vStvGhAySzdytfDFjWN4-56" value="" style="line;strokeWidth=1;fillColor=none;align=left;verticalAlign=middle;spacingTop=-1;spacingLeft=3;spacingRight=3;rotatable=0;labelPosition=right;points=[];portConstraint=eastwest;strokeColor=inherit;" parent="vStvGhAySzdytfDFjWN4-54" vertex="1">
          <mxGeometry y="66" width="500" height="8" as="geometry" />
        </mxCell>
        <mxCell id="vStvGhAySzdytfDFjWN4-57" value="&lt;font style=&quot;font-size: 18px;&quot;&gt;+getImpronta() double&lt;br&gt;+setImpronta(double) void&lt;br&gt;&lt;br&gt;&lt;i style=&quot;border-color: var(--border-color);&quot;&gt;+accetta(SensorVisitorInterface&amp;amp;) void&lt;br&gt;&lt;i style=&quot;border-color: var(--border-color);&quot;&gt;+accettaMod(SensorVisitorInterface&amp;amp;) void&lt;/i&gt;&lt;br style=&quot;border-color: var(--border-color);&quot;&gt;+accettaSalva(SensorVisitorInterface&amp;amp;, QJSonObject*) void&lt;/i&gt;&lt;/font&gt;" style="text;strokeColor=none;fillColor=none;align=left;verticalAlign=top;spacingLeft=4;spacingRight=4;overflow=hidden;rotatable=0;points=[[0,0.5],[1,0.5]];portConstraint=eastwest;whiteSpace=wrap;html=1;" parent="vStvGhAySzdytfDFjWN4-54" vertex="1">
          <mxGeometry y="74" width="500" height="146" as="geometry" />
        </mxCell>
        <mxCell id="vStvGhAySzdytfDFjWN4-58" value="&lt;font style=&quot;font-size: 24px;&quot;&gt;SensoreMotore&lt;/font&gt;" style="swimlane;fontStyle=1;align=center;verticalAlign=top;childLayout=stackLayout;horizontal=1;startSize=40;horizontalStack=0;resizeParent=1;resizeParentMax=0;resizeLast=0;collapsible=1;marginBottom=0;whiteSpace=wrap;html=1;" parent="1" vertex="1">
          <mxGeometry x="640" y="310" width="500" height="250" as="geometry" />
        </mxCell>
        <mxCell id="vStvGhAySzdytfDFjWN4-59" value="&lt;font style=&quot;font-size: 18px;&quot;&gt;- cavalli : unsigned int&lt;/font&gt;" style="text;strokeColor=none;fillColor=none;align=left;verticalAlign=top;spacingLeft=4;spacingRight=4;overflow=hidden;rotatable=0;points=[[0,0.5],[1,0.5]];portConstraint=eastwest;whiteSpace=wrap;html=1;" parent="vStvGhAySzdytfDFjWN4-58" vertex="1">
          <mxGeometry y="40" width="500" height="26" as="geometry" />
        </mxCell>
        <mxCell id="vStvGhAySzdytfDFjWN4-60" value="" style="line;strokeWidth=1;fillColor=none;align=left;verticalAlign=middle;spacingTop=-1;spacingLeft=3;spacingRight=3;rotatable=0;labelPosition=right;points=[];portConstraint=eastwest;strokeColor=inherit;" parent="vStvGhAySzdytfDFjWN4-58" vertex="1">
          <mxGeometry y="66" width="500" height="8" as="geometry" />
        </mxCell>
        <mxCell id="vStvGhAySzdytfDFjWN4-61" value="&lt;font style=&quot;font-size: 18px;&quot;&gt;+getCavalli() unsigned int&lt;br&gt;&lt;br&gt;+setCavalli(unsigned int) void&lt;br&gt;&lt;br&gt;&lt;i style=&quot;border-color: var(--border-color);&quot;&gt;+accetta(SensorVisitorInterface&amp;amp;) void&lt;br&gt;&lt;i style=&quot;border-color: var(--border-color);&quot;&gt;+accettaMod(SensorVisitorInterface&amp;amp;) void&lt;/i&gt;&lt;br style=&quot;border-color: var(--border-color);&quot;&gt;+accettaSalva(SensorVisitorInterface&amp;amp;, QJSonObject*) void&lt;/i&gt;&lt;/font&gt;" style="text;strokeColor=none;fillColor=none;align=left;verticalAlign=top;spacingLeft=4;spacingRight=4;overflow=hidden;rotatable=0;points=[[0,0.5],[1,0.5]];portConstraint=eastwest;whiteSpace=wrap;html=1;" parent="vStvGhAySzdytfDFjWN4-58" vertex="1">
          <mxGeometry y="74" width="500" height="176" as="geometry" />
        </mxCell>
        <mxCell id="vStvGhAySzdytfDFjWN4-62" value="" style="endArrow=block;dashed=1;endFill=0;endSize=12;html=1;rounded=0;exitX=-0.011;exitY=0.22;exitDx=0;exitDy=0;entryX=1;entryY=0.626;entryDx=0;entryDy=0;entryPerimeter=0;exitPerimeter=0;" parent="1" source="vStvGhAySzdytfDFjWN4-61" target="vStvGhAySzdytfDFjWN4-36" edge="1">
          <mxGeometry width="160" relative="1" as="geometry">
            <mxPoint x="1041" y="550" as="sourcePoint" />
            <mxPoint x="1201" y="550" as="targetPoint" />
          </mxGeometry>
        </mxCell>
        <mxCell id="vStvGhAySzdytfDFjWN4-63" value="" style="endArrow=block;dashed=1;endFill=0;endSize=12;html=1;rounded=0;exitX=0;exitY=0.205;exitDx=0;exitDy=0;entryX=1.004;entryY=1.001;entryDx=0;entryDy=0;entryPerimeter=0;exitPerimeter=0;" parent="1" source="vStvGhAySzdytfDFjWN4-57" target="vStvGhAySzdytfDFjWN4-36" edge="1">
          <mxGeometry width="160" relative="1" as="geometry">
            <mxPoint x="991" y="620" as="sourcePoint" />
            <mxPoint x="536" y="514" as="targetPoint" />
          </mxGeometry>
        </mxCell>
        <mxCell id="vStvGhAySzdytfDFjWN4-64" value="" style="endArrow=block;dashed=1;endFill=0;endSize=12;html=1;rounded=0;exitX=-0.003;exitY=0.331;exitDx=0;exitDy=0;entryX=0.938;entryY=1.005;entryDx=0;entryDy=0;entryPerimeter=0;exitPerimeter=0;" parent="1" source="vStvGhAySzdytfDFjWN4-53" target="vStvGhAySzdytfDFjWN4-36" edge="1">
          <mxGeometry width="160" relative="1" as="geometry">
            <mxPoint x="1001" y="630" as="sourcePoint" />
            <mxPoint x="395" y="518" as="targetPoint" />
          </mxGeometry>
        </mxCell>
        <mxCell id="vStvGhAySzdytfDFjWN4-65" value="&lt;font style=&quot;font-size: 24px;&quot;&gt;SensorInfoVisitor&lt;/font&gt;" style="swimlane;fontStyle=1;align=center;verticalAlign=top;childLayout=stackLayout;horizontal=1;startSize=40;horizontalStack=0;resizeParent=1;resizeParentMax=0;resizeLast=0;collapsible=1;marginBottom=0;whiteSpace=wrap;html=1;" parent="1" vertex="1">
          <mxGeometry x="1360" y="553" width="550" height="610" as="geometry" />
        </mxCell>
        <mxCell id="vStvGhAySzdytfDFjWN4-66" value="&lt;font style=&quot;font-size: 18px;&quot;&gt;- widget: QWidget*&lt;br&gt;- mod : modello*&lt;br&gt;- conferma: QPushButton*&lt;/font&gt;" style="text;strokeColor=none;fillColor=none;align=left;verticalAlign=top;spacingLeft=4;spacingRight=4;overflow=hidden;rotatable=0;points=[[0,0.5],[1,0.5]];portConstraint=eastwest;whiteSpace=wrap;html=1;" parent="vStvGhAySzdytfDFjWN4-65" vertex="1">
          <mxGeometry y="40" width="550" height="80" as="geometry" />
        </mxCell>
        <mxCell id="vStvGhAySzdytfDFjWN4-67" value="" style="line;strokeWidth=1;fillColor=none;align=left;verticalAlign=middle;spacingTop=-1;spacingLeft=3;spacingRight=3;rotatable=0;labelPosition=right;points=[];portConstraint=eastwest;strokeColor=inherit;" parent="vStvGhAySzdytfDFjWN4-65" vertex="1">
          <mxGeometry y="120" width="550" height="8" as="geometry" />
        </mxCell>
        <mxCell id="vStvGhAySzdytfDFjWN4-68" value="&lt;font style=&quot;font-size: 18px;&quot;&gt;+ getWidget() QWidget*&lt;br&gt;+ getPulsante() QPushButton*&lt;br&gt;+ setModello(modello *m) void&lt;br&gt;&lt;br&gt;&lt;i style=&quot;&quot;&gt;+visitaSPneumatico (SensorePneumatico&amp;amp;) void&lt;br&gt;+visitaSConsumo (SensoreConsumo&amp;amp;) void&lt;br&gt;+visitaSMotore (SensoreMotore&amp;amp;) void&lt;br&gt;+visitaSBatteria (SensoreBatteria&amp;amp;) void&lt;br&gt;+visitaSGas (SensoreGas&amp;amp;) void&lt;br&gt;&lt;/i&gt;&lt;br&gt;&lt;i style=&quot;&quot;&gt;+modSPneumatico(SensorePneumatico* sPneumatico) void&lt;b style=&quot;border-color: var(--border-color);&quot;&gt;&lt;br style=&quot;border-color: var(--border-color);&quot;&gt;&lt;/b&gt;&lt;/i&gt;&lt;/font&gt;&lt;div style=&quot;border-color: var(--border-color);&quot;&gt;&lt;i&gt;&lt;font style=&quot;font-size: 18px;&quot;&gt;+modSConsumo(SensoreConsumo* sConsumo) void&lt;/font&gt;&lt;/i&gt;&lt;/div&gt;&lt;div style=&quot;border-color: var(--border-color);&quot;&gt;&lt;i&gt;&lt;font style=&quot;font-size: 18px;&quot;&gt;+modSMotore(SensoreMotore* sMotore) void&lt;/font&gt;&lt;/i&gt;&lt;/div&gt;&lt;div style=&quot;border-color: var(--border-color);&quot;&gt;&lt;i&gt;&lt;font style=&quot;font-size: 18px;&quot;&gt;+modSBatteria(SensoreBatteria* sBatteria) void&lt;/font&gt;&lt;/i&gt;&lt;/div&gt;&lt;div style=&quot;border-color: var(--border-color);&quot;&gt;&lt;i&gt;&lt;font style=&quot;font-size: 18px;&quot;&gt;+modSGas(SensoreGas* sGas) void&lt;/font&gt;&lt;/i&gt;&lt;/div&gt;&lt;font style=&quot;font-size: 18px;&quot;&gt;&lt;br&gt;&lt;/font&gt;&lt;pre style=&quot;border-color: var(--border-color); margin-top: 0px; margin-bottom: 0px;&quot;&gt;&lt;span style=&quot;border-color: var(--border-color);&quot;&gt;&lt;i style=&quot;&quot;&gt;&lt;font style=&quot;font-size: 18px;&quot; face=&quot;Helvetica&quot;&gt;+salvaSPneumatico(SensorePneumatico&amp;amp;, QJsonObject*) void&lt;span style=&quot;border-color: var(--border-color);&quot;&gt;&lt;br style=&quot;border-color: var(--border-color);&quot;&gt;&lt;/span&gt;&lt;/font&gt;&lt;/i&gt;&lt;/span&gt;&lt;/pre&gt;&lt;pre style=&quot;border-color: var(--border-color); margin-top: 0px; margin-bottom: 0px;&quot;&gt;&lt;pre style=&quot;border-color: var(--border-color); margin-top: 0px; margin-bottom: 0px;&quot;&gt;&lt;span style=&quot;border-color: var(--border-color);&quot;&gt;&lt;i&gt;&lt;font style=&quot;font-size: 18px;&quot; face=&quot;Helvetica&quot;&gt;+salvaSPConsumo(SensoreConsumo&amp;amp;, QJsonObject*) void&lt;/font&gt;&lt;/i&gt;&lt;/span&gt;&lt;/pre&gt;&lt;pre style=&quot;border-color: var(--border-color); margin-top: 0px; margin-bottom: 0px;&quot;&gt;&lt;span style=&quot;border-color: var(--border-color);&quot;&gt;&lt;i&gt;&lt;font style=&quot;font-size: 18px;&quot; face=&quot;Helvetica&quot;&gt;+salvaSMotore(SensoreMotore&amp;amp;, QJsonObject*) void&lt;/font&gt;&lt;/i&gt;&lt;/span&gt;&lt;/pre&gt;&lt;pre style=&quot;border-color: var(--border-color); margin-top: 0px; margin-bottom: 0px;&quot;&gt;&lt;span style=&quot;border-color: var(--border-color);&quot;&gt;&lt;i&gt;&lt;font style=&quot;font-size: 18px;&quot; face=&quot;Helvetica&quot;&gt;+salvaSBatteria(SensoreBatteria&amp;amp;, QJsonObject*) void&lt;/font&gt;&lt;/i&gt;&lt;/span&gt;&lt;/pre&gt;&lt;pre style=&quot;border-color: var(--border-color); margin-top: 0px; margin-bottom: 0px;&quot;&gt;&lt;span style=&quot;border-color: var(--border-color);&quot;&gt;&lt;i style=&quot;&quot;&gt;&lt;font style=&quot;font-size: 18px;&quot; face=&quot;Helvetica&quot;&gt;+salvaSGas(SensoreGas&amp;amp;, QJsonObject*) void&lt;/font&gt;&lt;/i&gt;&lt;/span&gt;&lt;/pre&gt;&lt;/pre&gt;" style="text;strokeColor=none;fillColor=none;align=left;verticalAlign=top;spacingLeft=4;spacingRight=4;overflow=hidden;rotatable=0;points=[[0,0.5],[1,0.5]];portConstraint=eastwest;whiteSpace=wrap;html=1;" parent="vStvGhAySzdytfDFjWN4-65" vertex="1">
          <mxGeometry y="128" width="550" height="482" as="geometry" />
        </mxCell>
        <mxCell id="vStvGhAySzdytfDFjWN4-69" value="" style="endArrow=block;dashed=1;endFill=0;endSize=12;html=1;rounded=0;entryX=0.502;entryY=1.029;entryDx=0;entryDy=0;entryPerimeter=0;exitX=0.5;exitY=0;exitDx=0;exitDy=0;" parent="1" source="vStvGhAySzdytfDFjWN4-65" target="vStvGhAySzdytfDFjWN4-47" edge="1">
          <mxGeometry width="160" relative="1" as="geometry">
            <mxPoint x="1550" y="820" as="sourcePoint" />
            <mxPoint x="1710" y="820" as="targetPoint" />
          </mxGeometry>
        </mxCell>
      </root>
    </mxGraphModel>
  </diagram>
</mxfile>
